<svg width="46" height="46" viewBox="0 0 46 46" fill="none" xmlns="http://www.w3.org/2000/svg">
<path d="M16 23C16 21.1435 16.7375 19.363 18.0503 18.0503C19.363 16.7375 21.1435 16 23 16C24.8565 16 26.637 16.7375 27.9497 18.0503C29.2625 19.363 30 21.1435 30 23C30 24.8565 29.2625 26.637 27.9497 27.9497C26.637 29.2625 24.8565 30 23 30C21.1435 30 19.363 29.2625 18.0503 27.9497C16.7375 26.637 16 24.8565 16 23V23Z" stroke="#899878" stroke-width="3.5"/>
<path d="M2 37C2 35.1435 2.7375 33.363 4.05025 32.0503C5.36301 30.7375 7.14348 30 9 30H16V37C16 38.8565 15.2625 40.637 13.9497 41.9497C12.637 43.2625 10.8565 44 9 44C7.14348 44 5.36301 43.2625 4.05025 41.9497C2.7375 40.637 2 38.8565 2 37Z" stroke="#899878" stroke-width="3.5"/>
<path d="M16 2V16H23C24.8565 16 26.637 15.2625 27.9497 13.9497C29.2625 12.637 30 10.8565 30 9C30 7.14348 29.2625 5.36301 27.9497 4.05025C26.637 2.7375 24.8565 2 23 2L16 2Z" stroke="#899878" stroke-width="3.5"/>
<path d="M2 9C2 10.8565 2.7375 12.637 4.05025 13.9497C5.36301 15.2625 7.14348 16 9 16H16V2H9C7.14348 2 5.36301 2.7375 4.05025 4.05025C2.7375 5.36301 2 7.14348 2 9Z" stroke="#899878" stroke-width="3.5"/>
<path d="M2 23C2 24.8565 2.7375 26.637 4.05025 27.9497C5.36301 29.2625 7.14348 30 9 30H16V16H9C7.14348 16 5.36301 16.7375 4.05025 18.0503C2.7375 19.363 2 21.1435 2 23Z" stroke="#899878" stroke-width="3.5"/>
</svg>
