<svg width="45" height="45" viewBox="0 0 45 45" fill="none" xmlns="http://www.w3.org/2000/svg">
<g clip-path="url(#clip0_16_71)">
<path d="M10.4747 14.4771H1.44089C1.03996 14.4771 0.715088 14.8021 0.715088 15.2029V44.2247C0.715088 44.6256 1.03996 44.9505 1.44089 44.9505H10.4747C10.8757 44.9505 11.2005 44.6256 11.2005 44.2247V15.2029C11.2005 14.8021 10.8757 14.4771 10.4747 14.4771Z" fill="#899878"/>
<path d="M5.96119 0.0495605C2.67416 0.0495605 0 2.72082 0 6.00422C0 9.28908 2.67416 11.9614 5.96119 11.9614C9.24561 11.9614 11.9176 9.28893 11.9176 6.00422C11.9177 2.72082 9.24561 0.0495605 5.96119 0.0495605Z" fill="#899878"/>
<path d="M33.453 13.7556C29.8246 13.7556 27.1425 15.3154 25.5157 17.0876V15.2027C25.5157 14.8019 25.1908 14.4769 24.7899 14.4769H16.1384C15.7375 14.4769 15.4126 14.8019 15.4126 15.2027V44.2245C15.4126 44.6255 15.7375 44.9503 16.1384 44.9503H25.1525C25.5534 44.9503 25.8783 44.6255 25.8783 44.2245V29.8655C25.8783 25.0268 27.1926 23.1417 30.5656 23.1417C34.239 23.1417 34.5309 26.1637 34.5309 30.1144V44.2247C34.5309 44.6256 34.8558 44.9505 35.2567 44.9505H44.2741C44.6751 44.9505 45 44.6256 45 44.2247V28.3057C45 21.1108 43.628 13.7556 33.453 13.7556Z" fill="#899878"/>
</g>
<defs>
<clipPath id="clip0_16_71">
<rect width="45" height="45" fill="white"/>
</clipPath>
</defs>
</svg>
