<svg width="43" height="38" viewBox="0 0 43 38" fill="none" xmlns="http://www.w3.org/2000/svg">
<path d="M16.8333 31.5834H8.91667C6.58312 31.5834 5.41633 31.5834 4.52504 31.1292C3.74102 30.7299 3.1036 30.0924 2.70415 29.3084C2.25 28.4172 2.25 27.2503 2.25 24.9167V9.08342C2.25 6.74987 2.25 5.58308 2.70415 4.69179C3.1036 3.90777 3.74102 3.27035 4.52504 2.87089C5.41633 2.41675 6.58312 2.41675 8.91667 2.41675H33.0833C35.4169 2.41675 36.5838 2.41675 37.475 2.87089C38.259 3.27035 38.8965 3.90777 39.2958 4.69179C39.75 5.58308 39.75 6.74987 39.75 9.08342V12.8334M38.9306 9.21319L28.3956 16.2365C25.7227 18.0184 24.3862 18.9095 22.9417 19.2557C21.665 19.5615 20.3342 19.5615 19.0577 19.2557C17.6131 18.9095 16.2766 18.0184 13.6036 16.2365L2.55721 8.87223M25.1667 35.7501L29.3854 34.9063C29.7531 34.8328 29.9371 34.7959 30.1085 34.7286C30.2608 34.669 30.4056 34.5915 30.5396 34.498C30.6908 34.3926 30.8233 34.2601 31.0887 33.9947L39.75 25.3334C40.9006 24.1828 40.9006 22.3174 39.75 21.1667C38.5994 20.0161 36.734 20.0161 35.5833 21.1667L26.9221 29.828C26.6567 30.0934 26.5242 30.2259 26.4187 30.3772C26.3252 30.5111 26.2477 30.6559 26.1881 30.8082C26.1208 30.9797 26.084 31.1636 26.0104 31.5313L25.1667 35.7501Z" stroke="#899878" stroke-width="4" stroke-linecap="round" stroke-linejoin="round"/>
</svg>
